<svg width="38" height="38" viewBox="0 0 38 38" fill="none" xmlns="http://www.w3.org/2000/svg">
<path d="M34.4375 4.75C35.3823 4.75 36.2889 5.12487 36.957 5.79297C37.6251 6.46107 38 7.36767 38 8.3125L38 29.6875C38 30.6323 37.6251 31.5389 36.957 32.207C36.2889 32.8751 35.3823 33.25 34.4375 33.25L3.5625 33.25C2.61767 33.25 1.71107 32.8751 1.04297 32.207C0.374871 31.5389 0 30.6323 0 29.6875L0 8.3125C0 7.36767 0.37487 6.46107 1.04297 5.79297C1.71107 5.12487 2.61767 4.75 3.5625 4.75L34.4375 4.75ZM3.5625 7.125C3.24756 7.125 2.94536 7.24996 2.72266 7.47266C2.49996 7.69536 2.375 7.99756 2.375 8.3125L2.375 29.6875C2.375 30.0024 2.49996 30.3046 2.72266 30.5273C2.94536 30.75 3.24756 30.875 3.5625 30.875L34.4375 30.875C34.7524 30.875 35.0546 30.75 35.2773 30.5273C35.5 30.3046 35.625 30.0024 35.625 29.6875L35.625 8.3125C35.625 7.99756 35.5 7.69536 35.2773 7.47266C35.0546 7.24996 34.7524 7.125 34.4375 7.125L3.5625 7.125ZM12.2314 20.1855C12.3876 20.1855 12.5423 20.2165 12.6865 20.2764C12.8308 20.3362 12.962 20.4236 13.0723 20.5342C13.1828 20.6445 13.2702 20.7757 13.3301 20.9199C13.3899 21.0642 13.4209 21.2188 13.4209 21.375C13.4209 21.5312 13.3899 21.6858 13.3301 21.8301C13.2702 21.9743 13.1828 22.1055 13.0723 22.2158L9.50977 25.7783C9.39947 25.8889 9.26827 25.9763 9.12402 26.0361C8.97975 26.096 8.82514 26.127 8.66895 26.127C8.51276 26.1269 8.35813 26.096 8.21387 26.0361C8.06964 25.9763 7.9384 25.8889 7.82812 25.7783L6.64062 24.5908C6.53024 24.4804 6.44256 24.3493 6.38281 24.2051C6.32307 24.0608 6.29297 23.9061 6.29297 23.75C6.29297 23.5939 6.32307 23.4392 6.38281 23.2949C6.44257 23.1507 6.53023 23.0196 6.64062 22.9092C6.75103 22.7988 6.88212 22.7111 7.02637 22.6514C7.17061 22.5916 7.32532 22.5615 7.48145 22.5615C7.63757 22.5615 7.79228 22.5916 7.93652 22.6514C8.08076 22.7111 8.21187 22.7988 8.32227 22.9092L8.66895 23.2588L11.3906 20.5342C11.5009 20.4236 11.6321 20.3362 11.7764 20.2764C11.9206 20.2165 12.0753 20.1856 12.2314 20.1855ZM29.6875 21.375C30.0024 21.375 30.3047 21.5 30.5273 21.7227C30.75 21.9453 30.875 22.2476 30.875 22.5625C30.875 22.8774 30.75 23.1796 30.5273 23.4023C30.3047 23.625 30.0024 23.75 29.6875 23.75H17.8125C17.4976 23.7499 17.1953 23.625 16.9727 23.4023C16.75 23.1797 16.625 22.8774 16.625 22.5625C16.625 22.2476 16.75 21.9453 16.9727 21.7227C17.1953 21.5 17.4976 21.3751 17.8125 21.375H29.6875ZM12.2314 10.6855C12.3876 10.6855 12.5423 10.7165 12.6865 10.7764C12.8308 10.8362 12.962 10.9236 13.0723 11.0342C13.1828 11.1445 13.2702 11.2757 13.3301 11.4199C13.3899 11.5642 13.4209 11.7188 13.4209 11.875C13.4209 12.0312 13.3899 12.1858 13.3301 12.3301C13.2702 12.4743 13.1828 12.6055 13.0723 12.7158L9.50977 16.2783C9.39947 16.3889 9.26827 16.4763 9.12402 16.5361C8.97975 16.596 8.82514 16.627 8.66895 16.627C8.51276 16.6269 8.35813 16.596 8.21387 16.5361C8.06964 16.4763 7.9384 16.3889 7.82812 16.2783L6.64062 15.0908C6.53024 14.9804 6.44256 14.8493 6.38281 14.7051C6.32307 14.5608 6.29297 14.4061 6.29297 14.25C6.29298 13.9347 6.41766 13.6321 6.64062 13.4092C6.8636 13.1862 7.16612 13.0615 7.48145 13.0615C7.79677 13.0615 8.09929 13.1862 8.32227 13.4092L8.66895 13.7588L11.3906 11.0342C11.5009 10.9236 11.6321 10.8362 11.7764 10.7764C11.9206 10.7165 12.0753 10.6856 12.2314 10.6855ZM29.6875 11.875C30.0024 11.875 30.3047 12 30.5273 12.2227C30.75 12.4453 30.875 12.7476 30.875 13.0625C30.875 13.3774 30.75 13.6796 30.5273 13.9023C30.3047 14.125 30.0024 14.25 29.6875 14.25L17.8125 14.25C17.4976 14.2499 17.1953 14.125 16.9727 13.9023C16.75 13.6797 16.625 13.3774 16.625 13.0625C16.625 12.7476 16.75 12.4453 16.9727 12.2227C17.1953 12 17.4976 11.8751 17.8125 11.875H29.6875Z" fill="#F6F7F9"/>
</svg>
