<svg width="38" height="38" viewBox="0 0 38 38" fill="none" xmlns="http://www.w3.org/2000/svg">
<path d="M14.6154 27.7692C14.6154 27.5002 14.3973 27.2821 14.1282 27.2821H3.41026C3.14119 27.2821 2.92308 27.5002 2.92308 27.7692V34.5897C2.92308 34.8588 3.14119 35.0769 3.41026 35.0769H14.1282C14.3973 35.0769 14.6154 34.8588 14.6154 34.5897V27.7692ZM35.0674 19.8764C35.0285 19.6859 34.8782 19.5356 34.6878 19.4967L34.5897 19.4872H23.8718C23.6027 19.4872 23.3846 19.7053 23.3846 19.9744V34.5897L23.3941 34.6878C23.4395 34.9099 23.6363 35.0769 23.8718 35.0769H34.5897L34.6878 35.0674C34.8782 35.0285 35.0285 34.8782 35.0674 34.6878L35.0769 34.5897V19.9744L35.0674 19.8764ZM14.6154 3.41026C14.6154 3.14119 14.3973 2.92308 14.1282 2.92308H3.41026C3.1412 2.92308 2.92308 3.14119 2.92308 3.41026V18.0256C2.92308 18.2947 3.14119 18.5128 3.41026 18.5128H14.1282C14.3973 18.5128 14.6154 18.2947 14.6154 18.0256V3.41026ZM35.0674 3.31225C35.0285 3.12177 34.8782 2.97147 34.6878 2.93259L34.5897 2.92308H23.8718C23.6027 2.92308 23.3846 3.14119 23.3846 3.41026V10.2308L23.3941 10.3288C23.4395 10.5509 23.6363 10.7179 23.8718 10.7179H34.5897L34.6878 10.7084C34.8782 10.6696 35.0285 10.5193 35.0674 10.3288L35.0769 10.2308V3.41026L35.0674 3.31225ZM17.5385 34.5897C17.5385 36.4732 16.0116 38 14.1282 38H3.41026C1.52682 38 0 36.4732 0 34.5897V27.7692C0 25.8858 1.52682 24.359 3.41026 24.359H14.1282C16.0116 24.359 17.5385 25.8858 17.5385 27.7692V34.5897ZM38 34.5897L37.9952 34.7648C37.907 36.5089 36.5089 37.907 34.7648 37.9952L34.5897 38H23.8718C22.0471 38 20.5574 36.5669 20.4663 34.7648L20.4615 34.5897V19.9744C20.4615 18.0909 21.9884 16.5641 23.8718 16.5641H34.5897L34.7648 16.5689C36.5669 16.66 38 18.1497 38 19.9744V34.5897ZM17.5385 18.0256C17.5385 19.9091 16.0116 21.4359 14.1282 21.4359H3.41026C1.52682 21.4359 0 19.9091 0 18.0256V3.41026C5.02197e-07 1.52682 1.52682 0 3.41026 0H14.1282C16.0116 0 17.5385 1.52682 17.5385 3.41026V18.0256ZM38 10.2308L37.9952 10.4058C37.907 12.1499 36.5089 13.5481 34.7648 13.6363L34.5897 13.641H23.8718C22.0471 13.641 20.5574 12.2079 20.4663 10.4058L20.4615 10.2308V3.41026C20.4615 1.52682 21.9884 -9.56018e-08 23.8718 0H34.5897L34.7648 0.00475761C36.5669 0.0958978 38 1.58555 38 3.41026V10.2308Z" fill="#F6F7F9"/>
</svg>
