<svg width="38" height="38" viewBox="0 0 38 38" fill="none" xmlns="http://www.w3.org/2000/svg">
<g clip-path="url(#clip0_70_722)">
<path d="M28.5 19C31.0196 19 33.4362 20.0006 35.2178 21.7822C36.9994 23.5638 38 25.9804 38 28.5C38 31.0196 36.9994 33.4362 35.2178 35.2178C33.4362 36.9994 31.0196 38 28.5 38C25.9804 38 23.5638 36.9994 21.7822 35.2178C20.0006 33.4362 19 31.0196 19 28.5C19 25.9804 20.0006 23.5638 21.7822 21.7822C23.5638 20.0006 25.9804 19 28.5 19ZM32.0918 23.7646C31.9155 23.7385 31.7354 23.7467 31.5625 23.79C31.3897 23.8334 31.2271 23.9105 31.084 24.0166C30.9409 24.1227 30.8201 24.2564 30.7285 24.4092L27.5527 29.7051L26.0684 28.2178C25.8136 27.963 25.4677 27.8194 25.1074 27.8193C24.7471 27.8193 24.4013 27.963 24.1465 28.2178C23.8916 28.4726 23.748 28.8183 23.748 29.1787C23.7481 29.5391 23.8917 29.8848 24.1465 30.1396L26.2471 32.2373C26.4657 32.4564 26.7318 32.6227 27.0244 32.7236C27.3169 32.8245 27.6284 32.8579 27.9355 32.8203C28.2426 32.7826 28.5374 32.6753 28.7969 32.5068C29.0564 32.3382 29.2744 32.1121 29.4336 31.8467L33.0576 25.8047C33.1492 25.6518 33.2092 25.4819 33.2354 25.3057C33.2614 25.1296 33.2532 24.95 33.21 24.7773C33.1666 24.6044 33.0896 24.441 32.9834 24.2979C32.8772 24.1548 32.7437 24.034 32.5908 23.9424C32.4379 23.8508 32.2681 23.7908 32.0918 23.7646ZM16.2861 19C17.8132 19.0036 19.21 19.1001 20.4766 19.29C19.6406 20.0175 18.9074 20.8567 18.2939 21.7822C17.6608 21.737 16.9916 21.7139 16.2861 21.7139C10.0731 21.7139 6.74237 23.5604 4.97266 25.3301C3.13249 27.1703 2.71658 29.179 2.71387 29.8467L16.3594 29.8467C16.4616 30.7757 16.6698 31.6899 16.9805 32.5713H2.71387C2.67539 32.5711 0.000184307 32.5519 0 29.8574C0 27.1431 2.7147 19 16.2861 19ZM16.2861 0C18.4456 0.000110615 20.517 0.857782 22.0439 2.38477C23.5709 3.91178 24.4286 5.98309 24.4287 8.14258C24.4287 10.302 23.5708 12.3733 22.0439 13.9004C20.517 15.4274 18.4456 16.286 16.2861 16.2861C14.1265 16.2861 12.0554 15.4274 10.5283 13.9004C9.00124 12.3733 8.14258 10.3022 8.14258 8.14258C8.14265 5.98306 9.0013 3.91178 10.5283 2.38477C12.0554 0.857902 14.1267 0 16.2861 0ZM16.2861 2.71387C14.8464 2.71387 13.4653 3.28663 12.4473 4.30469C11.4294 5.32266 10.8575 6.703 10.8574 8.14258C10.8574 9.58232 11.4292 10.9634 12.4473 11.9814C13.4653 12.9995 14.8464 13.5713 16.2861 13.5713C17.7257 13.5712 19.1061 12.9993 20.124 11.9814C21.1421 10.9634 21.7139 9.58232 21.7139 8.14258C21.7138 6.70296 21.142 5.32267 20.124 4.30469C19.1061 3.28673 17.7257 2.71398 16.2861 2.71387Z" fill="#F15BB5"/>
</g>
<defs>
<clipPath id="clip0_70_722">
<rect width="38" height="38" fill="white"/>
</clipPath>
</defs>
</svg>
