<svg width="50" height="45" viewBox="0 0 50 45" fill="none" xmlns="http://www.w3.org/2000/svg">
<path fill-rule="evenodd" clip-rule="evenodd" d="M33.6167 12.4552C35.6023 9.21302 39.8416 8.19362 43.0853 10.1783C46.329 12.163 47.3489 16.4003 45.3633 19.6425C44.9294 20.351 44.3879 20.9532 43.7728 21.4412C43.11 21.967 42.66 22.7482 42.632 23.5935C42.5666 25.5739 43.1853 27.6017 44.3324 29.2178C45.8591 31.3686 46.5169 33.9803 45.9529 36.577C44.7924 41.9192 38.8999 45.1753 32.7915 43.8496C26.6832 42.5239 22.6721 37.1185 23.8326 31.7763C24.9931 26.4342 30.8856 23.1781 36.9939 24.5038C37.3654 24.5844 37.7483 24.3771 37.8267 24.0053C37.8514 23.8885 37.8729 23.7733 37.8915 23.6601C37.9757 23.1483 37.6128 22.6935 37.1256 22.5149C36.7044 22.3605 36.292 22.1626 35.8947 21.9195C32.651 19.9347 31.6311 15.6974 33.6167 12.4552ZM35.7859 30.7697C33.7324 29.9961 31.5225 30.8159 30.8501 32.6007C30.1777 34.3856 31.2973 36.4597 33.3508 37.2333C35.4043 38.0069 37.614 37.1872 38.2865 35.4023C38.9589 33.6175 37.8394 31.5434 35.7859 30.7697ZM39.377 13.4745C38.0095 13.4745 36.901 14.583 36.901 15.9505C36.901 17.3179 38.0096 18.4265 39.377 18.4265C40.7445 18.4265 41.853 17.3179 41.853 15.9505C41.853 14.583 40.7445 13.4745 39.377 13.4745Z" fill="white"/>
<path d="M0.842725 3.21337C2.40952 0.810163 5.62884 0.131546 8.03317 1.69759C9.69489 2.77999 10.5952 4.71357 10.3538 6.68134L9.62157 14.876C9.39707 17.3887 9.92933 19.9111 11.1499 22.1191L15.1307 29.3203C16.1467 31.023 16.1043 33.1553 15.0214 34.8163C13.4547 37.2195 10.2354 37.8982 7.83107 36.3322C6.16933 35.2498 5.26895 33.3161 5.51041 31.3484L6.24252 23.1536C6.46699 20.641 5.93479 18.1187 4.71426 15.9107L0.733446 8.70942C-0.282508 7.00672 -0.240143 4.87436 0.842725 3.21337Z" fill="white"/>
<path fill-rule="evenodd" clip-rule="evenodd" d="M21.2121 7.15246C26.4562 7.15247 30.7073 11.4017 30.7074 16.6434C30.7073 21.885 26.4562 26.1343 21.2121 26.1343C15.968 26.1343 11.7168 21.885 11.7168 16.6434C11.7168 11.4017 15.968 7.15247 21.2121 7.15246ZM21.246 14.1134C19.8785 14.1134 18.77 15.2219 18.77 16.5894C18.77 17.9569 19.8785 19.0654 21.246 19.0654C22.6135 19.0654 23.722 17.9569 23.722 16.5894C23.722 15.2219 22.6135 14.1134 21.246 14.1134Z" fill="white"/>
<path d="M47.5687 5.6217C48.9115 5.62171 50 6.7097 50 8.0518C50 9.39391 48.9115 10.482 47.5687 10.482C46.226 10.482 45.1375 9.39391 45.1375 8.0518C45.1375 6.7097 46.226 5.62171 47.5687 5.6217Z" fill="white"/>
</svg>
