<svg width="80" height="67" viewBox="0 0 80 67" fill="none" xmlns="http://www.w3.org/2000/svg">
<path d="M5.19543 65.1613C-0.097908 61.7427 -1.59264 54.7185 1.85676 49.4725C4.24085 45.8468 8.49979 43.8824 12.834 44.4093L30.8838 46.0068C36.4181 46.4967 41.974 45.3353 46.8373 42.6722L62.6988 33.9865C66.4492 31.7698 71.146 31.8622 74.8045 34.2249C80.0978 37.6434 81.5927 44.6675 78.1433 49.9135C75.7592 53.5392 71.5002 55.5037 67.1659 54.9769L49.116 53.3795C43.5818 52.8898 38.026 54.051 33.1627 56.714L17.3011 65.3997C13.5507 67.6164 8.85394 67.524 5.19543 65.1613Z" fill="#F15BB5"/>
<path fill-rule="evenodd" clip-rule="evenodd" d="M13.8717 20.7176C13.8717 9.27564 23.2312 7.15484e-05 34.7765 0C46.3219 3.10546e-05 55.6813 9.27561 55.6813 20.7176C55.6813 32.1596 46.3219 41.4352 34.7765 41.4352C23.2312 41.4352 13.8717 32.1596 13.8717 20.7176Z" fill="#F15BB5"/>
</svg>
