<svg width="38" height="40" viewBox="0 0 38 40" fill="none" xmlns="http://www.w3.org/2000/svg">
<path d="M25.4961 0.507813C26.294 0.589267 26.9168 1.26364 26.917 2.08301L26.917 12.375C26.917 13.2494 26.2075 13.958 25.333 13.958C24.4587 13.9578 23.75 13.2493 23.75 12.375L23.75 3.66699L6.8623 3.66699L16.2881 6.49512C16.9578 6.69603 17.417 7.31251 17.417 8.01172L17.417 32.167H23.75V23.458C23.7502 22.5838 24.4588 21.8752 25.333 21.875C26.2074 21.875 26.9168 22.5837 26.917 23.458L26.917 33.75C26.917 34.6244 26.2075 35.333 25.333 35.333L17.417 35.333V37.9551C17.417 39.0157 16.3938 39.7764 15.3779 39.4717L1.58301 35.333C0.708708 35.3328 2.80217e-06 34.6243 0 33.75L0 2.08301L0.0078125 1.9209C0.089115 1.12284 0.763528 0.500165 1.58301 0.5L25.333 0.5L25.4961 0.507813ZM30.4277 10C30.7147 10 30.9903 10.119 31.1934 10.3311L37.6826 17.1152C37.7832 17.2202 37.8635 17.3462 37.918 17.4834C37.9723 17.6206 38 17.7685 38 17.917C38 18.0654 37.9723 18.2125 37.918 18.3496C37.8635 18.4869 37.7832 18.6128 37.6826 18.7178L31.1934 25.502C30.9903 25.714 30.7147 25.833 30.4277 25.833C30.1409 25.8329 29.866 25.7139 29.6631 25.502C29.4602 25.2897 29.3458 25.0013 29.3457 24.7012C29.3458 24.401 29.4601 24.1126 29.6631 23.9004L34.3057 19.0469L21.6641 19.2588C21.3775 19.2586 21.103 19.1396 20.9004 18.9277C20.6978 18.7158 20.5831 18.4286 20.583 18.1289C20.5831 17.8291 20.6976 17.5411 20.9004 17.3291C21.103 17.1173 21.3776 16.9983 21.6641 16.998L34.3057 16.7861L29.6631 11.9326C29.46 11.7203 29.3457 11.4321 29.3457 11.1318C29.3458 10.8317 29.4601 10.5433 29.6631 10.3311C29.866 10.1192 30.141 10.0001 30.4277 10Z" fill="#F6F7F9"/>
</svg>
